<?xml version="1.0" encoding="utf-8"?>
<!-- Generator: Adobe Illustrator 16.0.0, SVG Export Plug-In . SVG Version: 6.00 Build 0)  -->
<!DOCTYPE svg PUBLIC "-//W3C//DTD SVG 1.1//EN" "http://www.w3.org/Graphics/SVG/1.1/DTD/svg11.dtd">
<svg version="1.1" id="Layer_1" xmlns="http://www.w3.org/2000/svg" xmlns:xlink="http://www.w3.org/1999/xlink" x="0px" y="0px"
	 width="560px" height="560px" viewBox="25.5 0 560 560" enable-background="new 25.5 0 560 560" xml:space="preserve">
<path stroke="#FFFFFF" d="M482.117,51.886c4.449-3.848,9.036-8.587,14.38-12.199c5.296-3.574,11.058-7.283,17.146-8.722
	c19.211-4.563,34.301,12.12,27.956,30.938c-2.146,6.35-6.814,11.852-10.442,17.671c-0.947,1.524-2.294,2.794-3.896,4.703
	c14.166,0.481,20.506,9.194,24.336,20.754c2.425,7.306,1.102,13.895-3.276,20.165c-15.071,21.588-30.029,43.251-45.029,64.893
	c-0.369,0.53-0.648,1.129-0.237,2.252c2.687-2.967,5.36-5.936,8.06-8.894c7.846-8.572,15.989-11.336,23.155-7.881
	c6.694,3.23,12.241,16.012,10.127,25.046c-1.358,5.757-3.433,11.484-6.07,16.781c-10.836,21.77-26.104,40.472-41.813,58.816
	c-15.196,17.76-30.811,35.178-45.696,53.193c-8.548,10.341-16.745,21.11-23.792,32.514c-10.014,16.189-21.464,30.81-35.688,43.617
	c-32.967,29.646-65.872,59.344-101.723,85.53c-18.014,13.165-36.803,24.842-58.069,32.316c-9.656,3.396-18.752,8.334-28.207,12.337
	c-2.145,0.911-4.688,0.858-7.035,1.239c-0.167-0.691-0.345-1.382-0.512-2.079c7.78-3.509,15.321-7.738,23.381-10.413
	c36.004-11.949,66.5-33.103,95.014-57.193c29.422-24.853,58.052-50.657,86.776-76.31c4.813-4.301,9.222-9.531,12.354-15.144
	c16.882-30.143,40.186-55.222,62.507-81.146c18.771-21.802,38.43-43.024,52.987-68.07c4.736-8.144,8.394-17.025,11.581-25.92
	c2.364-6.579-0.632-12.947-4.212-18.522c-3.438-5.364-11.616-5.802-17.364-0.873c-3.813,3.268-6.94,7.312-10.473,10.919
	c-21.708,22.143-43.178,44.517-65.261,66.281c-13.575,13.385-25.103,28.156-34.765,44.489c-1.138,1.932-2.085,4.017-3.449,5.768
	c-0.888,1.12-2.377,1.764-3.586,2.621c0.125-1.453-0.257-3.24,0.44-4.325c7.23-11.115,14.243-22.401,22.124-33.04
	c4.867-6.562,10.699-12.573,16.829-17.994c19.15-16.927,35.396-36.239,51.016-56.452c19.141-24.751,36.338-50.712,53.578-76.718
	c6.957-10.487,2.037-27.664-9.371-33.1c-6.267-2.987-12.485-1.645-17.608,4.125c-15.894,17.897-31.353,36.209-47.655,53.723
	c-22.667,24.332-44.672,49.331-70.907,70.15c-6.457,5.116-11.133,12.456-16.68,18.73c-0.895,1.014-2.05,1.799-3.085,2.69
	c-0.478-0.373-0.959-0.739-1.437-1.103c0.863-1.892,1.357-4.083,2.646-5.621c4.42-5.293,8.513-11.083,13.79-15.396
	c36.803-30.127,67.583-66.099,99.154-101.308c11.086-12.364,22.154-24.761,32.948-37.381c3.854-4.503,7.607-9.376,10.104-14.695
	c6.469-13.778-3.068-30.36-16.973-30.005c-7.018,0.176-13.601,2.194-19.17,6.868c-45.23,38.033-89.922,76.635-130.972,119.305
	c-11.491,11.95-24.53,22.417-36.98,33.428c-1.78,1.573-4.229,2.392-6.381,3.557c-0.397-0.432-0.81-0.866-1.215-1.293
	c0.691-1.006,1.209-2.194,2.097-2.983c12.998-11.491,27.033-22.002,38.905-34.558c32.323-34.195,68.352-64.33,102.765-96.238
	c2.782-2.58,5.059-5.903,6.94-9.242c3.938-6.974,2.02-13.278-2.996-19c-4.873-5.546-10.884-7.933-18.074-6.106
	c-4.854,1.233-9.816,2.598-14.219,4.892c-17.806,9.254-34.527,20.099-49.224,33.939c-6.249,5.89-13.011,11.227-19.527,16.826
	c-10.615,9.132-21.248,18.244-31.822,27.42c-31.209,27.075-62.811,53.586-97.374,76.467c-26.467,17.532-52.154,36.246-78.103,54.572
	c-3.943,2.794-7.333,6.368-11.068,9.484c-1.257,1.051-2.764,1.799-4.164,2.684c-0.447-0.462-0.899-0.92-1.353-1.388
	c1.228-1.534,2.204-3.394,3.723-4.551c18.688-14.301,37.172-28.904,56.294-42.611c26.419-18.94,53.353-37.166,80.021-55.752
	c2.447-1.704,4.61-3.813,6.892-5.749c4.569-3.884,6.053-8.825,3.616-13.65c-2.276-4.513-6.922-4.551-10.83-3.744
	c-6.338,1.3-12.855,2.835-18.627,5.643c-14.595,7.077-29.696,12.292-45.69,14.684c-10.115,1.511-17.579,6.428-23.292,14.804
	c-17.621,25.838-37.035,50.271-58.302,73.224c-1.698,1.829-2.812,4.387-3.651,6.797c-12.117,34.92-24.353,69.812-36.01,104.888
	c-2.187,6.588-2.377,13.963-2.74,21.004c-0.31,6.005-2.877,9.438-8.263,11.938c-9.638,4.491-18.955,9.686-28.516,14.374
	c-1.263,0.626-3.109,0.077-4.682,0.064c1.042-1.203,1.858-2.854,3.175-3.538c9.925-5.207,20.016-10.086,29.881-15.394
	c1.853-0.994,4.211-3.442,4.17-5.17c-0.554-21.696,9.555-40.526,15.977-60.298c7.5-23.089,15.44-46.026,23.411-68.952
	c1.191-3.422,3.116-6.863,5.54-9.521c19.2-21.021,37.535-42.742,53.095-66.605c8.399-12.876,19.331-19.995,34.747-22.69
	c12.683-2.216,24.757-7.932,37.106-12.071c7.047-2.368,13.975-5.437,21.213-6.863c10.646-2.1,15.834,2.219,17.312,13.597
	c9.072-7.356,18.008-14.208,26.503-21.569c22.284-19.336,44.021-39.347,66.693-58.219c14.779-12.31,30.828-23.143,48.849-30.445
	c15.578-6.31,28.074-2.109,34.33,11.901C482.021,41.885,481.515,47.003,482.117,51.886z"/>
</svg>
