<?xml version="1.0" encoding="utf-8"?>
<!-- Generator: Adobe Illustrator 16.0.0, SVG Export Plug-In . SVG Version: 6.00 Build 0)  -->
<!DOCTYPE svg PUBLIC "-//W3C//DTD SVG 1.1//EN" "http://www.w3.org/Graphics/SVG/1.1/DTD/svg11.dtd">
<svg version="1.1" id="Layer_1" xmlns="http://www.w3.org/2000/svg" xmlns:xlink="http://www.w3.org/1999/xlink" x="0px" y="0px"
	 width="560px" height="560px" viewBox="395.5 0 560 560" enable-background="new 395.5 0 560 560" xml:space="preserve">
<path stroke="#FFFFFF" d="M548.407,537.198c27.144-16.123,53.6-33.479,83.319-44.892c9.66-3.707,19.524-6.981,28.888-11.337
	c14.39-6.69,28.487-14.016,42.586-21.315c16.23-8.417,32.119-17.52,48.54-25.543c15.749-7.719,30.188-17.228,42.391-29.682
	c27.848-28.425,58.468-53.498,90.732-76.68c5.326-3.834,10.303-8.163,15.387-12.314c6.063-4.951,11.104-10.334,13.527-18.356
	c1.401-4.621,5.198-9.166,9.077-12.276c12.117-9.712,15.038-21.849,11.526-36.309c-1.079-4.443-1.999-8.912-3.116-13.979
	c-4.906,2.553-5.809-0.33-5.026-3.896c2.59-12.035-1.156-22.28-7.986-31.954c-1.301-1.841-1.295-4.608-1.891-6.957
	c0.704-0.203,1.401-0.419,2.101-0.635c1.13,1.814,2.253,3.631,3.714,6.005c-0.488-11.857-14.911-36.639-26.477-45.817
	c1.098,2.807,2.037,5.23,2.99,7.668c-0.548,0.33-1.1,0.673-1.65,1.003c-1.447-1.6-3.275-2.982-4.26-4.823
	c-2.729-5.078-5.439-10.221-7.547-15.577c-4.172-10.588-11.775-15.896-23.023-17.013c-6.297-0.621-12.518-2.233-18.688-3.731
	c-1.639-0.406-2.966-2.082-5.649-4.088c2.608-0.495,3.39-0.876,4.05-0.725c7.953,1.688,15.831,3.797,23.842,5.116
	c10.035,1.639,16.81,6.69,21.715,15.742c3.244,5.979,8.658,10.791,13.108,16.136c0.813-0.457,1.632-0.914,2.45-1.371
	c-0.965-3.631-1.301-7.592-3.002-10.842c-9.668-18.472-21.887-35.217-36.74-49.791c-4.158-4.101-10.525-5.929-15.883-8.798
	c-0.438,0.495-0.889,0.99-1.332,1.485c2.456,3.325,4.982,6.613,7.324,10.004c0.774,1.117,1.104,2.539,1.632,3.82
	c-1.511-0.381-3.479-0.278-4.462-1.219c-2.121-2.044-3.841-4.558-5.542-6.995c-2.395-3.428-4.724-6.905-6.906-10.461
	c-5.466-8.912-13.489-12.694-23.728-11.769c-8.723,0.8-17.405,1.993-26.127,2.768c-2.216,0.179-4.508-0.533-6.768-0.838
	c0.032-0.724,0.058-1.46,0.089-2.184c3.758-0.419,7.503-0.965,11.273-1.257c9.698-0.749,19.43-2.096,29.104-1.766
	c4.526,0.165,10.373,2.501,13.108,5.878c6.31,7.771,15.057,9.764,23.53,13.19c4.569-9.826,4.723-18.637-1.148-28.361
	c-10.811-17.926-27.479-23.499-46.579-23.905c-13.686-0.292-27.415,1.206-41.133,1.563c-2.958,0.089-6.462-0.546-8.836-2.146
	c-5.833-3.936-12.048-4.748-18.243-2.576c-22.807,7.973-42.738,19.245-55.136,41.806c-6.322,11.502-15.837,21.455-24.889,31.205
	c-20.16,21.709-37.146,45.437-46.579,73.658c-5.783,17.291-9.483,35.306-14.017,53.016c-2.951,11.565-5.218,23.347-8.798,34.696
	c-1.979,6.284-5.109,12.708-9.344,17.672c-16.263,19.03-35.813,32.551-61.001,38.353c-17.894,4.139-35.141,11.299-52.387,17.913
	c-17.634,6.779-34.893,14.523-52.33,21.836c-1.79,0.749-3.631,1.396-5.44,2.095c-0.514-0.47-1.028-0.951-1.549-1.422
	c1.092-1.357,1.904-3.39,3.313-3.974c26.667-11.007,53.257-22.204,80.177-32.551c11.458-4.405,23.62-6.957,35.477-10.283
	c23.519-6.589,41.177-21.303,55.099-40.676c3.218-4.469,4.404-10.602,5.802-16.136c4.85-19.298,9.509-38.646,14.003-58.03
	c7.992-34.493,23.969-64.67,47.665-91c13.952-15.526,28.786-30.469,38.124-49.575c0.769-1.574,2.03-2.983,3.313-4.215
	c13.4-12.886,28.736-22.737,46.586-28.158c7.623-2.311,15.253-2.133,22.279,2.92c1.81,1.295,4.863,1.474,7.256,1.244
	c19.487-1.79,38.898-2.869,58.322,0.965c18.775,3.72,29.923,16.188,36.436,32.83c2.006,5.104,0.082,12.022-0.959,17.938
	c-0.646,3.693-0.432,5.916,2.419,8.76c14.485,14.422,26.444,30.837,36.258,48.737c2.044,3.731,3.859,8.214,3.827,12.326
	c-0.037,6.387,1.879,11.502,5.523,16.491c10.701,14.663,15.545,31.6,18.826,49.183c2.267,12.11,5.143,24.12,7.692,36.169
	c3.066,14.511,0.33,26.851-11.432,37.248c-5.091,4.48-7.884,11.591-11.73,17.493c-1.721,2.628-2.971,5.802-5.269,7.757
	c-9.813,8.431-19.551,17.037-30.012,24.616c-27.975,20.274-54.559,42.11-78.704,66.866c-16.047,16.44-34.881,28.742-55.746,38.429
	c-14.745,6.855-29.236,14.587-42.892,23.41c-19.664,12.684-41.481,20.173-62.993,28.399c-29.955,11.438-57.383,27.473-84.284,44.599
	c-1.828,1.168-4.354,1.219-6.557,1.79C548.794,538.95,548.599,538.073,548.407,537.198z"/>
</svg>
