<?xml version="1.0" encoding="utf-8"?>
<!-- Generator: Adobe Illustrator 16.0.0, SVG Export Plug-In . SVG Version: 6.00 Build 0)  -->
<!DOCTYPE svg PUBLIC "-//W3C//DTD SVG 1.1//EN" "http://www.w3.org/Graphics/SVG/1.1/DTD/svg11.dtd">
<svg version="1.1" id="Layer_1" xmlns="http://www.w3.org/2000/svg" xmlns:xlink="http://www.w3.org/1999/xlink" x="0px" y="0px"
	 width="560px" height="560px" viewBox="216.5 0 560 560" enable-background="new 216.5 0 560 560" xml:space="preserve">
<path stroke="#FFFFFF" d="M370.563,535.865c12.018-6.245,23.407-15.157,36.198-18.235c37.635-9.073,66.423-32.385,95.608-55.313
	c15.791-12.407,30.805-25.813,46.141-38.804c1.174-0.99,2.904-2.261,2.961-3.474c0.439-8.995,8.428-12.33,13.275-17.891
	c5.705-6.523,13.131-9.897,22.143-9.04c0.941,0.095,2.115-1.074,3.008-1.859c11.438-10.053,13.555-27.73,3.93-39.532
	c-5.105-6.263-11.623-11.365-17.535-16.967c-2.131-2.015-4.463-3.852-6.428-6.012c-0.49-0.545,0.088-2.054,0.172-3.117
	c0.84,0.368,1.814,0.579,2.504,1.136c5.65,4.531,11.25,9.142,17.346,14.105c3.854-6.346,7.666-11.968,10.793-17.946
	c4.82-9.195,3.926-18.324-3.521-25.538c-5.428-5.243-11.941-9.537-18.48-13.379c-2.623-1.539-6.631-0.811-10.01-0.919
	c-1.725-0.059-3.789,1.008-5.104,0.354c-2.164-1.077-4.447-2.833-5.506-4.902c-0.629-1.239,0.451-4.197,1.709-5.372
	c3.033-2.833,6.457-5.347,10.021-7.483c5.232-3.146,10.67-5.956,16.113-8.726c17.635-8.968,33.861-19.764,49.514-32.09
	c22.033-17.37,45.939-32.377,69.086-48.344c8.338-5.75,16.971-11.085,25.053-17.161c2.334-1.751,4.293-5.291,4.609-8.202
	c1.32-11.981-10.703-24.868-23.234-21.097c-16.264,4.89-32.123,10.367-46.996,18.8c-20.039,11.353-40.184,22.572-60.818,32.764
	c-17.045,8.416-32.574,18.917-47.838,30.031c-6.334,4.623-12.803,9.143-19.537,13.156c-5.545,3.307-8.461,2.241-11.43-3.493
	c-4.303-8.316-4.902-17.105-1.941-25.942c13.365-39.875,26.936-79.675,46.881-116.928c4.275-7.988,8.104-16.24,11.605-24.595
	c1.508-3.604,2.539-7.837,2.275-11.688c-0.979-14.097-12.707-20.685-24.986-13.596c-5.229,3.017-9.824,7.935-13.35,12.948
	c-27.664,39.275-55.201,78.652-73.52,123.501c-2.505,6.131-5.628,12.01-8.328,18.063c-4.82,10.803-11.306,20.24-19.822,28.643
	c-4.82,4.754-8.338,11.172-11.311,17.378c-3.746,7.82-8.327,14.754-14.244,21.13c-29.792,32.075-55.525,67.411-81.57,102.478
	c-6.668,8.983-13.465,17.868-19.961,26.963c-3.646,5.11-8.033,9.023-13.716,11.757c-14.144,6.824-28.161,13.928-42.293,20.785
	c-1.269,0.612-2.995,0.278-4.515,0.391c-0.094-0.592-0.189-1.191-0.284-1.781c1.158-0.68,2.282-1.426,3.484-2.01
	c14.089-6.941,28.328-13.588,42.199-20.937c4.447-2.359,8.656-5.979,11.734-9.964c26.78-34.723,53.159-69.764,79.956-104.476
	c7.142-9.251,15.608-17.465,22.961-26.568c4.665-5.77,9.106-11.942,12.374-18.559c4.158-8.414,9.224-15.831,15.597-22.739
	c5.354-5.809,10.063-12.505,13.749-19.499c6.262-11.873,11.7-24.197,17.127-36.485c18.07-40.883,44.108-76.85,69.708-113.06
	c3.123-4.425,7.627-8.288,12.279-11.11c7.143-4.319,15.119-4.987,22.154,0.445c7.158,5.516,9.77,13.49,7.564,22.001
	c-1.992,7.696-5.365,15.083-8.65,22.38c-11.656,25.928-24.035,51.545-35.129,77.712c-6.313,14.894-10.621,30.639-15.881,45.981
	c-2.879,8.408-3.223,16.724,0.506,24.996c1.721,3.813,4.191,4.912,7.832,2.471c5.221-3.493,10.732-6.626,15.609-10.559
	c26.199-21.119,56.559-35.158,85.916-50.908c7.988-4.286,16.197-8.23,23.908-12.974c15.342-9.435,32.066-15.237,49.24-20.188
	c17.313-4.993,30.76,12.458,27.926,26.83c-0.557,2.819-2.461,5.956-4.697,7.757c-5.828,4.695-12.162,8.784-18.357,13.023
	c-24.793,16.963-50.811,32.412-74.057,51.271c-20.773,16.855-43.668,29.332-66.785,41.943c-3.506,1.909-6.797,4.274-9.953,6.724
	c-1.018,0.793-1.291,2.539-1.896,3.847c1.475,0.635,3.34,2.19,4.381,1.763c7.893-3.287,14.355,0.167,20.65,4.066
	c8.121,5.029,15.475,10.931,18.875,20.342c2.533,6.976,1.66,13.855-1.758,20.269c-2.711,5.076-5.813,9.953-9.008,14.739
	c-1.92,2.872-2.338,5.332,0.285,7.894c16.426,16.037,7.613,45.155-13.705,53.555c-6.15,2.421-12.078,5.466-17.957,8.518
	c-4.303,2.221-7.703,5.275-8.313,10.671c-0.193,1.72-1.375,3.74-2.73,4.854c-28.518,23.335-54.985,49.264-86.392,68.924
	c-11.957,7.492-24.363,14.351-36.966,20.695c-5.455,2.75-11.94,3.44-17.918,5.177c-2.494,0.725-5.054,1.471-7.331,2.673
	c-8.94,4.742-17.735,9.753-26.702,14.462c-1.709,0.891-3.913,0.852-5.884,1.252C370.98,537.289,370.769,536.577,370.563,535.865z"/>
</svg>
